<?xml version="1.0" encoding="iso-8859-1"?>
<!-- Uploaded to: SVG Repo, www.svgrepo.com, Generator: SVG Repo Mixer Tools -->
<svg height="800px" width="800px" version="1.1" id="Capa_1" xmlns="http://www.w3.org/2000/svg" xmlns:xlink="http://www.w3.org/1999/xlink" 
	 viewBox="0 0 59.504 59.504" xml:space="preserve">
<g>
	<g>
		<path style="fill:#010002;" d="M9.949,52.392l-0.002,0.03c0,0.001,0.001,0.003,0,0.004s0,0.002,0.001,0.005
			C9.949,52.459,9.948,52.428,9.949,52.392z"/>
		<path style="fill:#010002;" d="M44.568,23.267c-1.738-0.687-3.23-1.162-4.654-1.495c0.881-1.882,1.688-3.689,2.281-5.163
			c1.112-2.771-1.205-5.993-3.83-6.714c-0.971-0.267-1.881-0.263-2.707-0.049c-0.098-0.011-0.189-0.031-0.295-0.031
			c-0.25,0-0.51,0.033-0.771,0.1l-5.28,1.336c-0.479,0.121-1.003,0.22-1.56,0.325c-1.36,0.256-2.766,0.521-3.863,1.164
			c-1.176,0.689-1.955,2.369-2.58,3.717c-0.203,0.438-0.395,0.852-0.578,1.186l-2.666,4.862c-0.512,0.932-0.51,1.924,0.005,2.792
			c0.55,0.928,1.627,1.552,2.683,1.552c0.985,0,1.807-0.511,2.317-1.439l4.209-7.675l2.987-0.756
			c-1.73,3.873-3.7,7.637-5.762,11.344c-0.203,0.365-0.344,0.704-0.439,1.022c-4.992,7.19-8.954,13.42-13.174,21.555
			c-0.127,0.246-0.222,0.485-0.29,0.722l-0.065-0.006c0,0,0.012,0.097-0.001,0.288c-0.029,0.15-0.052,0.3-0.058,0.441
			c-0.091,0.496-0.302,1.271-0.788,2.406c-0.059,1.368,0.099,2.09,0.099,2.09l0.01-0.003c-0.001,0.009-0.01,0.021-0.01,0.021
			l0.015,0.879c0,0,0.108,0.084,0.237,0.084l11.594,0.326c0.13,0.002,0.235-0.039,0.235-0.088l0.01-1.199
			c0-0.008-0.007-0.016-0.014-0.021l0.014,0.001c0,0,0.224-1.431-1.034-1.705c0,0-0.793-0.073-1.834-0.356l-0.337,1.071
			l-0.609-0.173l0.342-1.079c-0.184-0.06-0.367-0.123-0.555-0.193l-0.304,0.971l-0.606-0.174l0.326-1.042
			c-0.09-0.042-0.18-0.091-0.271-0.138c0.115-0.158,0.225-0.328,0.322-0.517c3.913-7.544,7.388-12.802,11.806-19.119
			c0.021,0.019,0.04,0.037,0.063,0.056c2.169,1.656,4.41,4.35,6.479,6.875c-1.856,2.566-3.715,5.136-5.569,7.703l-1.922,0.781
			l0.008,0.01c-0.008,0-0.023,0.006-0.023,0.006l-0.635,0.605c0,0,0.013,0.139,0.102,0.23l7.642,8.728
			c0.088,0.095,0.188,0.146,0.226,0.113l0.888-0.812c0.006-0.006,0.006-0.016,0.007-0.025L36.4,58.67c0,0,1.201-0.808,0.546-1.917
			c0,0-0.48-0.635-0.98-1.59l-1.018,0.48l-0.285-0.562l1.021-0.484c-0.082-0.174-0.158-0.353-0.231-0.537l-0.918,0.438l-0.285-0.562
			l0.985-0.471c-0.059-0.179-0.112-0.359-0.159-0.548l-0.025,0.013c0.464-0.297,0.89-0.683,1.238-1.166
			c2.51-3.472,4.375-5.334,6.885-8.806c0.975-1.351,0.402-3.149-0.555-4.284c-2.259-2.676-4.522-5.49-7.078-7.941
			c0.545-1.081,1.193-2.375,1.883-3.769c0.123,0.137,0.273,0.233,0.457,0.271c1.548,0.325,3.162,0.831,5.093,1.592
			c0.261,0.103,0.536,0.155,0.821,0.155c1.199,0,2.439-0.971,2.77-2.165C46.966,25.323,46.165,23.898,44.568,23.267z M22.506,25.1
			c-0.392,0.713-1.014,1.105-1.753,1.105c-0.836,0-1.692-0.498-2.129-1.237c-0.394-0.666-0.393-1.431,0.005-2.155l0.909-1.657
			l4.199,1.699L22.506,25.1z M16.483,54.776l-0.147-0.041c0.077-0.062,0.15-0.133,0.224-0.203L16.483,54.776z M37.357,23.897
			l-2.725,5.998l-0.074-0.056c-0.584-0.523-1.18-1.032-1.802-1.507c-0.274-0.209-0.548-0.363-0.817-0.476L31.64,27.63l7.249-14.607
			c2.571,0.854,2.142,2.79,2.142,2.79l-3.027,6.664C37.738,22.879,37.52,23.381,37.357,23.897z M45.935,26.643
			c-0.307,1.123-1.718,1.983-2.734,1.583c-0.789-0.312-1.52-0.571-2.225-0.804l2.008-4.065c0.434,0.155,0.881,0.323,1.348,0.507
			C45.317,24.254,46.328,25.214,45.935,26.643z"/>
		<path style="fill:#010002;" d="M49.361,3.523c-0.186-1.103-3.365-3.477-4.775-3.522c-1.409-0.045-3.021,2.814-3.021,2.814
			l6.133,4.35C47.695,7.165,49.544,4.626,49.361,3.523z"/>
		<path style="fill:#010002;" d="M47.406,7.695l-6.287-4.458L37.541,1.82c-0.073,0.106,0.035,0.314,0.248,0.465l1.451,1.03
			c-1.451,2.374-0.839,5.496,1.465,7.129c2.302,1.633,5.449,1.178,7.209-0.975l1.392,0.984c0.213,0.151,0.444,0.187,0.521,0.08
			L47.406,7.695z"/>
	</g>
</g>
</svg>