<!DOCTYPE svg PUBLIC "-//W3C//DTD SVG 1.1//EN" "http://www.w3.org/Graphics/SVG/1.1/DTD/svg11.dtd">
<!-- Uploaded to: SVG Repo, www.svgrepo.com, Transformed by: SVG Repo Mixer Tools -->
<svg fill="#ffffff" version="1.1" id="Capa_1" xmlns="http://www.w3.org/2000/svg" xmlns:xlink="http://www.w3.org/1999/xlink" width="800px" height="800px" viewBox="0 0 42.5 42.5" xml:space="preserve" stroke="#ffffff">
<g id="SVGRepo_bgCarrier" stroke-width="0"/>
<g id="SVGRepo_tracerCarrier" stroke-linecap="round" stroke-linejoin="round"/>
<g id="SVGRepo_iconCarrier"> <g> <path d="M27.598,3.5v19c0,1.934-1.567,3.5-3.5,3.5h-5.695c-1.933,0-3.5-1.566-3.5-3.5v-19c0-1.934,1.567-3.5,3.5-3.5h5.695 C26.029,0,27.598,1.566,27.598,3.5z M24.098,29.502h-5.695c-1.933,0-3.5,1.566-3.5,3.5V39c0,1.934,1.567,3.5,3.5,3.5h5.695 c1.933,0,3.5-1.566,3.5-3.5v-5.998C27.598,31.068,26.029,29.502,24.098,29.502z"/> </g> </g>
</svg>