<?xml version="1.0" encoding="utf-8"?>
<!-- Uploaded to: SVG Repo, www.svgrepo.com, Generator: SVG Repo Mixer Tools -->
<svg version="1.1" id="Uploaded to svgrepo.com" xmlns="http://www.w3.org/2000/svg" xmlns:xlink="http://www.w3.org/1999/xlink" 
	 width="800px" height="800px" viewBox="0 0 32 32" xml:space="preserve">
<style type="text/css">
	.isometric_acht{fill:#F05A28;}
	.isometric_negen{fill:#BE1E2D;}
	.isometric_elf{fill:#72C0AB;}
	.isometric_twaalf{fill:#569080;}
	.st0{fill:#225B49;}
	.st1{fill:#F28103;}
	.st2{fill:#7BD6C4;}
	.st3{fill:#F29227;}
	.st4{fill:#FF7344;}
	.st5{fill:#F8F7C5;}
	.st6{fill:#F5DF89;}
	.st7{fill:#AD9A74;}
	.st8{fill:none;}
	.st9{fill:#BE1E2D;}
	.st10{fill:#F2D76C;}
	.st11{fill:#72C0AB;}
	.st12{fill:#569080;}
</style>
<g>
	<path class="isometric_acht" d="M20.995,15.479c0.024-0.712-0.452-1.438-1.488-1.978v-1.321c1.201-0.619,1.548-1.395,1.488-2.054
		V8.606c-0.004-0.668-0.442-1.337-1.315-1.839c-1.767-1.018-4.623-1.023-6.379-0.012c-1.426,0.821-1.295,1.835-1.295,1.835v1.535
		c-0.045,0.645,0.3,1.414,1.488,2.033c0,0,0,1.431,0,1.321c-1.038,0.535-1.513,1.259-1.488,1.971v1.489
		c-0.049,0.702,0.381,1.414,1.315,1.952c1.767,1.018,4.623,1.023,6.379,0.012c0.935-0.539,1.36-1.256,1.295-1.964V15.479z"/>
	<path class="isometric_negen" d="M20.995,15.421v1.519c0.065,0.707-0.36,1.425-1.295,1.964c-1.756,1.011-4.612,1.006-6.379-0.012
		c-0.934-0.538-1.364-1.25-1.315-1.952v-1.535c0.004,0.665,0.432,1.331,1.315,1.839c1.767,1.018,4.623,1.023,6.379,0.012
		C20.578,16.75,20.998,16.086,20.995,15.421z M20.995,8.606c0.013,2.387-5.004,3.362-7.675,1.823
		c-0.883-0.509-1.311-1.175-1.315-1.839v1.535l0,0c-0.045,0.645,0.3,1.414,1.488,2.033v1.782h0.006
		c-0.015,0.456,0.275,0.916,0.881,1.265c1.178,0.679,3.082,0.682,4.253,0.008c0.607-0.35,0.891-0.813,0.866-1.273h0.009v-1.761
		c1.201-0.619,1.548-1.395,1.488-2.054l0,0V8.606z"/>
	<path class="isometric_elf" d="M15.5,19.583v5.537h0.002c0,0,0.997,1.878,0.998,1.88c0.001-0.001,0.999-1.88,1-1.88v-2.828
		c-0.389-1.005-0.881-1.905-1.463-2.661C15.857,19.62,15.678,19.607,15.5,19.583z"/>
	<path class="isometric_twaalf" d="M16.037,19.631c0.582,0.755,1.074,1.656,1.463,2.661v-2.701
		C17.019,19.652,16.527,19.662,16.037,19.631z"/>
</g>
</svg>