<?xml version="1.0" encoding="iso-8859-1"?>
<!-- Uploaded to: SVG Repo, www.svgrepo.com, Generator: SVG Repo Mixer Tools -->
<svg fill="#000000" version="1.1" id="Layer_1" xmlns="http://www.w3.org/2000/svg" xmlns:xlink="http://www.w3.org/1999/xlink" 
	 viewBox="0 0 512 512" xml:space="preserve">
<g>
	<g>
		<g>
			<rect x="311.652" y="211.478" width="33.391" height="33.391"/>
			<polygon points="378.435,144.696 378.435,0 0,0 0,512 378.435,512 378.435,311.652 345.043,311.652 345.043,345.043 
				311.652,345.043 311.652,378.435 345.043,378.435 345.043,478.609 33.391,478.609 33.391,33.391 345.043,33.391 345.043,211.478 
				378.435,211.478 378.435,178.087 411.826,178.087 411.826,144.696 			"/>
		</g>
	</g>
</g>
<g>
	<g>
		<rect x="77.913" y="77.913" width="222.609" height="33.391"/>
	</g>
</g>
<g>
	<g>
		<rect x="77.913" y="155.826" width="222.609" height="33.391"/>
	</g>
</g>
<g>
	<g>
		<rect x="378.435" y="278.261" width="33.391" height="33.391"/>
	</g>
</g>
<g>
	<g>
		<rect x="411.826" y="244.87" width="33.391" height="33.391"/>
	</g>
</g>
<g>
	<g>
		<rect x="445.217" y="211.478" width="33.391" height="33.391"/>
	</g>
</g>
<g>
	<g>
		<rect x="478.609" y="144.696" width="33.391" height="66.783"/>
	</g>
</g>
<g>
	<g>
		<rect x="211.478" y="311.652" width="33.391" height="33.391"/>
	</g>
</g>
<g>
	<g>
		<rect x="244.87" y="278.261" width="33.391" height="33.391"/>
	</g>
</g>
<g>
	<g>
		<rect x="278.261" y="244.87" width="33.391" height="33.391"/>
	</g>
</g>
<g>
	<g>
		<rect x="411.826" y="111.304" width="66.783" height="33.391"/>
	</g>
</g>
<g>
	<g>
		<g>
			<polygon points="211.478,345.043 178.087,345.043 178.087,411.826 77.913,411.826 77.913,445.217 278.261,445.217 
				278.261,411.826 211.478,411.826 			"/>
			<rect x="278.261" y="378.435" width="33.391" height="33.391"/>
		</g>
	</g>
</g>
</svg>