<?xml version="1.0" ?>
<!-- Uploaded to: SVG Repo, www.svgrepo.com, Generator: SVG Repo Mixer Tools -->
<svg width="800px" height="800px" viewBox="0 0 32 32" enable-background="new 0 0 32 32" id="Stock_cut" version="1.1" xml:space="preserve" xmlns="http://www.w3.org/2000/svg" xmlns:xlink="http://www.w3.org/1999/xlink">
<desc/>
<g>
<rect fill="none" height="24" stroke="#000000" stroke-linejoin="round" stroke-miterlimit="10" stroke-width="2" width="30" x="1" y="7"/>
<path d="M31,7H1v6   c0,2.209,1.791,4,4,4h22c2.209,0,4-1.791,4-4V7z" fill="none" stroke="#000000" stroke-linejoin="round" stroke-miterlimit="10" stroke-width="2"/>
<path d="M8,7V3   c0-1.105,0.895-2,2-2h12c1.105,0,2,0.895,2,2v4" fill="none" stroke="#000000" stroke-linejoin="round" stroke-miterlimit="10" stroke-width="2"/>
<path d="M16,21L16,21   c-1.105,0-2-0.895-2-2v-4c0-1.105,0.895-2,2-2h0c1.105,0,2,0.895,2,2v4C18,20.105,17.105,21,16,21z" fill="none" stroke="#000000" stroke-linejoin="round" stroke-miterlimit="10" stroke-width="2"/>
<line fill="none" stroke="#000000" stroke-linejoin="round" stroke-miterlimit="10" stroke-width="2" x1="18" x2="14" y1="17" y2="17"/>
</g>
</svg>